<svg width="14" height="13" viewBox="0 0 14 13" fill="none" xmlns="http://www.w3.org/2000/svg">
<path d="M5.71078 0.691058C6.01013 -0.230263 7.31356 -0.230263 7.6129 0.691059L8.5 3.42133C8.63387 3.83336 9.01783 4.11232 9.45106 4.11232H12.3218C13.2905 4.11232 13.6933 5.35192 12.9096 5.92133L10.5871 7.6088C10.2366 7.86345 10.0899 8.31481 10.2238 8.72682L11.1109 11.4572C11.4103 12.3785 10.3558 13.1446 9.57207 12.5752L7.24964 10.8878C6.89915 10.6331 6.42454 10.6331 6.07405 10.8878L3.75162 12.5752C2.96791 13.1446 1.91342 12.3785 2.21276 11.4572L3.09988 8.72682C3.23375 8.31481 3.0871 7.86345 2.73662 7.6088L0.414078 5.92133C-0.369622 5.35192 0.0331593 4.11232 1.00188 4.11232H3.87263C4.30586 4.11232 4.68982 3.83336 4.82369 3.42133L5.71078 0.691058Z" fill="#FFA858"/>
</svg>
